<svg xmlns="http://www.w3.org/2000/svg" viewBox="0 0 40 40" width="40" height="40">
  <defs>
    <filter id="glow">
      <feGaussianBlur stdDeviation="1.5" result="blur"/>
      <feMerge>
        <feMergeNode in="blur"/>
        <feMergeNode in="SourceGraphic"/>
      </feMerge>
    </filter>
  </defs>
  <g filter="url(#glow)" stroke="#87A878" stroke-width="1.5" fill="none" stroke-linecap="round" stroke-linejoin="round">
    <!-- Wrench -->
    <path d="M16 24l-4.5 4.5c-.8.8-.8 2 0 2.8l.7.7c.8.8 2 .8 2.8 0L19.5 27.5"/>
    <path d="M16 24l2-2c-.5-2 0-4.2 1.5-5.7 2-2 5-2.3 7.2-1l-3 3 .5 2.5 2.5.5 3-3c1.3 2.2 1 5.2-1 7.2-1.5 1.5-3.7 2-5.7 1.5l-2 2"/>
    <!-- Circular recovery arrow -->
    <path d="M8 17A12 12 0 0 1 20 8" stroke="#6d8b74" stroke-width="1.3"/>
    <polyline points="18,6 20,8 18,10" stroke="#6d8b74" stroke-width="1.3"/>
    <path d="M32 23A12 12 0 0 1 20 32" stroke="#6d8b74" stroke-width="1.3"/>
    <polyline points="22,34 20,32 22,30" stroke="#6d8b74" stroke-width="1.3"/>
  </g>
</svg>